<svg width="26" height="24" viewBox="0 0 26 24" fill="none" xmlns="http://www.w3.org/2000/svg">
<g opacity="0.3">
<g clip-path="url(#clip0_428_560)">
<path d="M8.05273 2.38965C8.05273 2.25488 8.1014 2.13883 8.19873 2.0415C8.29606 1.94417 8.41211 1.89551 8.54688 1.89551H25.0557C25.1904 1.89551 25.3065 1.94417 25.4038 2.0415C25.5011 2.13883 25.5498 2.25488 25.5498 2.38965C25.5498 2.52441 25.5011 2.64046 25.4038 2.73779C25.3065 2.83512 25.1904 2.88379 25.0557 2.88379H8.54688C8.41211 2.88379 8.29606 2.83512 8.19873 2.73779C8.1014 2.64046 8.05273 2.52441 8.05273 2.38965ZM8.05273 11.3965C8.05273 11.2617 8.1014 11.1419 8.19873 11.0371C8.29606 10.9323 8.41211 10.8799 8.54688 10.8799H25.0557C25.1904 10.8799 25.3065 10.9323 25.4038 11.0371C25.5011 11.1419 25.5498 11.2617 25.5498 11.3965C25.5498 11.5312 25.5011 11.6473 25.4038 11.7446C25.3065 11.842 25.1904 11.8906 25.0557 11.8906H8.54688C8.41211 11.8906 8.29606 11.842 8.19873 11.7446C8.1014 11.6473 8.05273 11.5312 8.05273 11.3965ZM8.05273 20.3809C8.05273 20.2461 8.1014 20.13 8.19873 20.0327C8.29606 19.9354 8.41211 19.8867 8.54688 19.8867H25.0557C25.1904 19.8867 25.3065 19.9354 25.4038 20.0327C25.5011 20.13 25.5498 20.2461 25.5498 20.3809C25.5498 20.5306 25.5011 20.6541 25.4038 20.7515C25.3065 20.8488 25.1904 20.8975 25.0557 20.8975H8.54688C8.41211 20.8975 8.29606 20.8488 8.19873 20.7515C8.1014 20.6541 8.05273 20.5306 8.05273 20.3809ZM2.5498 0.390625C3.10384 0.390625 3.57552 0.585287 3.96484 0.974609C4.35417 1.36393 4.54883 1.83561 4.54883 2.38965V2.41211C4.54883 2.96615 4.35417 3.43783 3.96484 3.82715C3.57552 4.21647 3.10384 4.41113 2.5498 4.41113C1.99577 4.41113 1.52409 4.21647 1.13477 3.82715C0.745443 3.43783 0.550781 2.96615 0.550781 2.41211V2.38965C0.550781 1.83561 0.745443 1.36393 1.13477 0.974609C1.52409 0.585287 1.99577 0.390625 2.5498 0.390625ZM2.5498 9.39746C3.10384 9.39746 3.57552 9.59212 3.96484 9.98145C4.35417 10.3708 4.54883 10.8424 4.54883 11.3965C4.54883 11.9505 4.35417 12.4222 3.96484 12.8115C3.57552 13.2008 3.10384 13.3955 2.5498 13.3955C1.99577 13.3955 1.52409 13.2008 1.13477 12.8115C0.745443 12.4222 0.550781 11.9505 0.550781 11.3965C0.550781 10.8424 0.745443 10.3708 1.13477 9.98145C1.52409 9.59212 1.99577 9.39746 2.5498 9.39746ZM2.5498 18.3818C3.10384 18.3818 3.57552 18.5802 3.96484 18.9771C4.35417 19.3739 4.54883 19.8418 4.54883 20.3809V20.4033C4.54883 20.9574 4.35417 21.429 3.96484 21.8184C3.57552 22.2077 3.10384 22.4023 2.5498 22.4023C1.99577 22.4023 1.52409 22.2077 1.13477 21.8184C0.745443 21.429 0.550781 20.9574 0.550781 20.4033V20.3809C0.550781 19.8418 0.745443 19.3739 1.13477 18.9771C1.52409 18.5802 1.99577 18.3818 2.5498 18.3818Z" fill="black"/>
</g>
</g>
<defs>
<clipPath id="clip0_428_560">
<rect width="25" height="23" fill="white" transform="matrix(1 0 0 -1 0.550781 23.3906)"/>
</clipPath>
</defs>
</svg>
