<svg width="23" height="24" viewBox="0 0 23 24" fill="none" xmlns="http://www.w3.org/2000/svg">
<g clip-path="url(#clip0_428_557)">
<path d="M2.55566 0.390625C3.1097 0.390625 3.58138 0.585287 3.9707 0.974609C4.36003 1.36393 4.55469 1.83561 4.55469 2.38965V2.41211C4.55469 2.96615 4.36003 3.43783 3.9707 3.82715C3.58138 4.21647 3.1097 4.41113 2.55566 4.41113C2.00163 4.41113 1.52995 4.21647 1.14062 3.82715C0.751302 3.43783 0.556641 2.96615 0.556641 2.41211V2.38965C0.556641 1.83561 0.751302 1.36393 1.14062 0.974609C1.52995 0.585287 2.00163 0.390625 2.55566 0.390625ZM2.55566 9.39746C3.1097 9.39746 3.58138 9.59212 3.9707 9.98145C4.36003 10.3708 4.55469 10.8424 4.55469 11.3965C4.55469 11.9505 4.36003 12.4222 3.9707 12.8115C3.58138 13.2008 3.1097 13.3955 2.55566 13.3955C2.00163 13.3955 1.52995 13.2008 1.14062 12.8115C0.751302 12.4222 0.556641 11.9505 0.556641 11.3965C0.556641 10.8424 0.751302 10.3708 1.14062 9.98145C1.52995 9.59212 2.00163 9.39746 2.55566 9.39746ZM2.55566 18.3818C3.1097 18.3818 3.58138 18.5802 3.9707 18.9771C4.36003 19.3739 4.55469 19.8418 4.55469 20.3809V20.4033C4.55469 20.9574 4.36003 21.429 3.9707 21.8184C3.58138 22.2077 3.1097 22.4023 2.55566 22.4023C2.00163 22.4023 1.52995 22.2077 1.14062 21.8184C0.751302 21.429 0.556641 20.9574 0.556641 20.4033V20.3809C0.556641 19.8418 0.751302 19.3739 1.14062 18.9771C1.52995 18.5802 2.00163 18.3818 2.55566 18.3818ZM11.5625 0.390625C12.1165 0.390625 12.5882 0.585287 12.9775 0.974609C13.3669 1.36393 13.5615 1.83561 13.5615 2.38965V2.41211C13.5615 2.96615 13.3669 3.43783 12.9775 3.82715C12.5882 4.21647 12.1165 4.41113 11.5625 4.41113C11.0085 4.41113 10.5368 4.21647 10.1475 3.82715C9.75814 3.43783 9.56348 2.96615 9.56348 2.41211V2.38965C9.56348 1.83561 9.75814 1.36393 10.1475 0.974609C10.5368 0.585287 11.0085 0.390625 11.5625 0.390625ZM11.5625 9.39746C12.1165 9.39746 12.5882 9.59212 12.9775 9.98145C13.3669 10.3708 13.5615 10.8424 13.5615 11.3965C13.5615 11.9505 13.3669 12.4222 12.9775 12.8115C12.5882 13.2008 12.1165 13.3955 11.5625 13.3955C11.0085 13.3955 10.5368 13.2008 10.1475 12.8115C9.75814 12.4222 9.56348 11.9505 9.56348 11.3965C9.56348 10.8424 9.75814 10.3708 10.1475 9.98145C10.5368 9.59212 11.0085 9.39746 11.5625 9.39746ZM11.5625 18.3818C12.1165 18.3818 12.5882 18.5802 12.9775 18.9771C13.3669 19.3739 13.5615 19.8418 13.5615 20.3809V20.4033C13.5615 20.9574 13.3669 21.429 12.9775 21.8184C12.5882 22.2077 12.1165 22.4023 11.5625 22.4023C11.0085 22.4023 10.5368 22.2077 10.1475 21.8184C9.75814 21.429 9.56348 20.9574 9.56348 20.4033V20.3809C9.56348 19.8418 9.75814 19.3739 10.1475 18.9771C10.5368 18.5802 11.0085 18.3818 11.5625 18.3818ZM20.5469 0.390625C21.1009 0.390625 21.5726 0.585287 21.9619 0.974609C22.3512 1.36393 22.5459 1.83561 22.5459 2.38965V2.41211C22.5459 2.96615 22.3512 3.43783 21.9619 3.82715C21.5726 4.21647 21.1009 4.41113 20.5469 4.41113C20.0078 4.41113 19.5399 4.21647 19.1431 3.82715C18.7463 3.43783 18.5479 2.96615 18.5479 2.41211V2.38965C18.5479 1.83561 18.7463 1.36393 19.1431 0.974609C19.5399 0.585287 20.0078 0.390625 20.5469 0.390625ZM20.5469 9.39746C21.1009 9.39746 21.5726 9.59212 21.9619 9.98145C22.3512 10.3708 22.5459 10.8424 22.5459 11.3965C22.5459 11.9505 22.3512 12.4222 21.9619 12.8115C21.5726 13.2008 21.1009 13.3955 20.5469 13.3955C20.0078 13.3955 19.5399 13.2008 19.1431 12.8115C18.7463 12.4222 18.5479 11.9505 18.5479 11.3965C18.5479 10.8424 18.7463 10.3708 19.1431 9.98145C19.5399 9.59212 20.0078 9.39746 20.5469 9.39746ZM20.5469 18.3818C21.1009 18.3818 21.5726 18.5802 21.9619 18.9771C22.3512 19.3739 22.5459 19.8418 22.5459 20.3809V20.4033C22.5459 20.9574 22.3512 21.429 21.9619 21.8184C21.5726 22.2077 21.1009 22.4023 20.5469 22.4023C20.0078 22.4023 19.5399 22.2077 19.1431 21.8184C18.7463 21.429 18.5479 20.9574 18.5479 20.4033V20.3809C18.5479 19.8418 18.7463 19.3739 19.1431 18.9771C19.5399 18.5802 20.0078 18.3818 20.5469 18.3818Z" fill="black"/>
</g>
<defs>
<clipPath id="clip0_428_557">
<rect width="22" height="23" fill="white" transform="matrix(1 0 0 -1 0.550781 23.3906)"/>
</clipPath>
</defs>
</svg>
