<svg width="15" height="15" viewBox="0 0 15 15" fill="none" xmlns="http://www.w3.org/2000/svg">
<g clip-path="url(#clip0_301_742)">
<path d="M7.25714 2.09378C9.12658 2.09378 9.3462 2.10209 10.0851 2.13534C10.7685 2.16597 11.1378 2.27972 11.385 2.37684C11.7126 2.50459 11.9463 2.65466 12.1904 2.89922C12.4345 3.14378 12.5876 3.37697 12.7128 3.70466C12.8073 3.95184 12.9241 4.32153 12.9543 5.00447C12.9875 5.74341 12.9958 5.96259 12.9958 7.83247C12.9958 9.70234 12.9875 9.92153 12.9543 10.6605C12.9236 11.3438 12.8099 11.7131 12.7128 11.9603C12.585 12.288 12.435 12.5216 12.1904 12.7657C11.9458 13.0098 11.7126 13.163 11.385 13.2881C11.1378 13.3826 10.7681 13.4994 10.0851 13.5296C9.3462 13.5628 9.12702 13.5712 7.25714 13.5712C5.38727 13.5712 5.16808 13.5628 4.42914 13.5296C3.74577 13.499 3.37652 13.3852 3.12933 13.2881C2.80164 13.1603 2.56802 13.0103 2.32389 12.7657C2.07977 12.5212 1.92664 12.288 1.80152 11.9603C1.70702 11.7131 1.5902 11.3434 1.56002 10.6605C1.52677 9.92153 1.51845 9.70234 1.51845 7.83247C1.51845 5.96259 1.52677 5.74341 1.56002 5.00447C1.59064 4.32109 1.70439 3.95184 1.80152 3.70466C1.92927 3.37697 2.07933 3.14334 2.32389 2.89922C2.56845 2.65509 2.80164 2.50197 3.12933 2.37684C3.37652 2.28234 3.7462 2.16553 4.42914 2.13534C5.16808 2.09903 5.38727 2.09378 7.25714 2.09378ZM7.25714 0.832469C5.35708 0.832469 5.1182 0.840781 4.37095 0.874031C3.62633 0.907281 3.11795 1.02672 2.67389 1.19909C2.21277 1.37672 1.82383 1.61866 1.43489 2.00759C1.04595 2.39653 0.807078 2.78809 0.626391 3.24659C0.454016 3.69109 0.334578 4.19947 0.301328 4.94672C0.268078 5.69134 0.259766 5.93022 0.259766 7.82984C0.259766 9.72947 0.268078 9.96878 0.301328 10.716C0.334578 11.4607 0.454016 11.969 0.626391 12.4162C0.804016 12.8773 1.04595 13.2662 1.43489 13.6552C1.82383 14.0441 2.21539 14.283 2.67389 14.4637C3.11839 14.636 3.62677 14.7555 4.37402 14.7887C5.12127 14.822 5.35752 14.8303 7.2602 14.8303C9.16289 14.8303 9.39914 14.822 10.1464 14.7887C10.891 14.7555 11.3994 14.636 11.8465 14.4637C12.3076 14.286 12.6966 14.0441 13.0855 13.6552C13.4745 13.2662 13.7133 12.8747 13.894 12.4162C14.0664 11.9717 14.1858 11.4633 14.2191 10.716C14.2523 9.96878 14.2606 9.73253 14.2606 7.82984C14.2606 5.92716 14.2523 5.69091 14.2191 4.94366C14.1858 4.19903 14.0664 3.69066 13.894 3.24353C13.7164 2.78241 13.4745 2.39347 13.0855 2.00453C12.6966 1.61559 12.305 1.37672 11.8465 1.19603C11.402 1.02366 10.8936 0.904219 10.1464 0.870969C9.39652 0.840344 9.15764 0.832031 7.25758 0.832031L7.25714 0.832469ZM7.25714 4.23534C5.27395 4.23534 3.66264 5.84359 3.66264 7.82984C3.66264 9.81609 5.27395 11.4243 7.25714 11.4243C9.24033 11.4243 10.8516 9.81303 10.8516 7.82984C10.8516 5.84666 9.24033 4.23534 7.25714 4.23534ZM7.25714 10.163C5.96827 10.163 4.92395 9.11872 4.92395 7.82984C4.92395 6.54097 5.96827 5.49666 7.25714 5.49666C8.54602 5.49666 9.59033 6.54097 9.59033 7.82984C9.59033 9.11872 8.54602 10.163 7.25714 10.163ZM11.8321 4.09359C11.8321 4.55691 11.4567 4.93228 10.9934 4.93228C10.5301 4.93228 10.1547 4.55691 10.1547 4.09359C10.1547 3.63028 10.5301 3.25491 10.9934 3.25491C11.4567 3.25491 11.8321 3.63028 11.8321 4.09359Z" fill="#6A6A6A"/>
</g>
<defs>
<clipPath id="clip0_301_742">
<rect width="14" height="14" fill="white" transform="translate(0.259766 0.832031)"/>
</clipPath>
</defs>
</svg>
