<svg width="15" height="15" viewBox="0 0 15 15" fill="none" xmlns="http://www.w3.org/2000/svg">
<g clip-path="url(#clip0_301_739)">
<path d="M14.6387 3.48962C14.1247 3.71931 13.5698 3.87235 12.9902 3.94069C13.5835 3.58531 14.0372 3.02216 14.2533 2.35234C13.6983 2.68038 13.0831 2.92096 12.4298 3.04946C11.9048 2.49169 11.1584 2.14453 10.3328 2.14453C8.74725 2.14453 7.4624 3.42947 7.4624 5.01506C7.4624 5.23923 7.48699 5.45794 7.53617 5.66846C5.14952 5.54815 3.03359 4.4054 1.6174 2.66669C1.37135 3.09049 1.22921 3.58531 1.22921 4.11017C1.22921 5.10531 1.73496 5.98561 2.50592 6.49958C2.03561 6.48584 1.59277 6.35464 1.20458 6.1414V6.17693C1.20458 7.56844 2.1942 8.73031 3.5092 8.99276C3.26857 9.05839 3.01438 9.09391 2.75188 9.09391C2.56603 9.09391 2.38832 9.07475 2.21061 9.04194C2.57697 10.1819 3.63773 11.013 4.89248 11.0376C3.90833 11.8086 2.67261 12.2679 1.32485 12.2679C1.09253 12.2679 0.865559 12.2542 0.638672 12.2268C1.91267 13.0443 3.42174 13.5172 5.0429 13.5172C10.3247 13.5172 13.2143 9.14033 13.2143 5.34576C13.2143 5.22003 13.2116 5.097 13.2061 4.97397C13.7666 4.57218 14.2533 4.06642 14.6387 3.48962Z" fill="#6A6A6A"/>
</g>
<defs>
<clipPath id="clip0_301_739">
<rect width="14" height="14" fill="white" transform="translate(0.638672 0.832031)"/>
</clipPath>
</defs>
</svg>
