<svg width="15" height="15" viewBox="0 0 15 15" fill="none" xmlns="http://www.w3.org/2000/svg">
<g clip-path="url(#clip0_301_751)">
<path d="M12.8047 6.20978C12.1627 6.26962 11.5165 6.15339 10.9356 5.87358C10.3547 5.59377 9.86108 5.16096 9.50769 4.62166V10.086C9.50786 10.8849 9.2711 11.666 8.82736 12.3303C8.38362 12.9947 7.75282 13.5125 7.01475 13.8183C6.27669 14.1241 5.4645 14.2042 4.68093 14.0483C3.89736 13.8925 3.1776 13.5078 2.61269 12.9429C2.04777 12.378 1.66307 11.6582 1.50725 10.8747C1.35144 10.0911 1.4315 9.27891 1.73731 8.54084C2.04312 7.80278 2.56094 7.17198 3.22529 6.72824C3.88963 6.28449 4.67065 6.04773 5.46956 6.04791C5.55356 6.04791 5.63581 6.05491 5.71894 6.06016V8.05078C5.63581 8.04028 5.55444 8.02541 5.46956 8.02541C4.93029 8.03652 4.41685 8.25855 4.03939 8.64386C3.66194 9.02918 3.45053 9.54708 3.45053 10.0865C3.45053 10.6259 3.66194 11.1438 4.03939 11.5291C4.41685 11.9144 4.93029 12.1364 5.46956 12.1475C6.60706 12.1475 7.61331 11.2507 7.61331 10.1123L7.63431 0.832031H9.53831C9.62536 1.65918 10.0004 2.42942 10.5978 3.0081C11.1952 3.58679 11.9769 3.93709 12.8064 3.99778V6.20978" fill="#6A6A6A"/>
</g>
<defs>
<clipPath id="clip0_301_751">
<rect width="14" height="14" fill="white" transform="translate(0.119141 0.832031)"/>
</clipPath>
</defs>
</svg>
