<svg width="15" height="15" viewBox="0 0 15 15" fill="none" xmlns="http://www.w3.org/2000/svg">
<g clip-path="url(#clip0_301_748)">
<path d="M0.5 11.9453C0.5 12.5101 0.686384 12.9902 1.05915 13.3856C1.43192 13.781 1.88572 13.9787 2.42055 13.9787H12.7122C13.2471 13.9787 13.7009 13.781 14.0736 13.3856C14.4464 12.9902 14.6328 12.5101 14.6328 11.9453V3.75483C14.6328 3.19003 14.4446 2.70427 14.0681 2.29756C13.6917 1.89085 13.2399 1.6875 12.7127 1.6875H2.42097C1.89378 1.6875 1.44196 1.89085 1.06552 2.29756C0.689071 2.70427 0.500848 3.19003 0.500848 3.75483V11.9453H0.5ZM5.64012 10.4655V5.23502C5.64012 5.18241 5.65525 5.14097 5.68551 5.11071C5.70814 5.10308 5.72695 5.09926 5.74194 5.09926L5.79836 5.11071L10.7238 7.73168C10.7541 7.76194 10.7692 7.79956 10.7692 7.84453C10.7692 7.87479 10.7541 7.90491 10.7238 7.93489L5.79836 10.5559C5.78337 10.5709 5.76824 10.5783 5.75297 10.5783C5.72271 10.5783 5.70008 10.5709 5.68509 10.5559C5.65483 10.5256 5.6397 10.4955 5.6397 10.4655H5.64012Z" fill="#6A6A6A"/>
</g>
<defs>
<clipPath id="clip0_301_748">
<rect width="14" height="14" fill="white" transform="translate(0.5 0.832031)"/>
</clipPath>
</defs>
</svg>
